<?xml version="1.0" encoding="UTF-8"?>
<svg width="700pt" height="700pt" version="1.1" viewBox="0 0 700 700" xmlns="http://www.w3.org/2000/svg">
 <path d="m530.11 141.18c2.2266 1.082 4.1289 2.8828 5.3203 5.2695 0.058594 0.11328 0.11328 0.22656 0.16797 0.34375 0.11328 0.25 0.21875 0.50781 0.32031 0.76562 0.53516 1.4297 0.77344 2.8984 0.74609 4.3438v81.43c0 6.4453-5.2266 11.668-11.668 11.668s-11.668-5.2227-11.668-11.668v-62.789l-53.113 26.559c-5.7656 2.8828-12.773 0.54688-15.652-5.2188-2.8828-5.7617-0.54688-12.77 5.2148-15.652l49.133-24.562-49.133-24.566c-5.7617-2.8828-8.0977-9.8906-5.2148-15.652 2.8789-5.7617 9.8867-8.0977 15.652-5.2188zm6.5547 243.59c0.035156 1.7109-0.30859 3.457-1.0664 5.1094-0.57422 1.2422-1.3594 2.3789-2.3281 3.3516-0.98047 0.97656-2.0312 1.7109-3.1602 2.2617l-69.895 34.945c-5.7656 2.8828-12.773 0.54688-15.652-5.2148-2.8828-5.7656-0.54688-12.773 5.2148-15.652l49.133-24.566-49.133-24.566c-5.7617-2.8789-8.0977-9.8867-5.2148-15.652 2.8789-5.7617 9.8867-8.0977 15.652-5.2148l53.113 26.555v-62.789c0-6.4414 5.2266-11.664 11.668-11.664s11.668 5.2227 11.668 11.664zm-358.91 0.23438 49.129 24.566c5.7656 2.8789 8.1016 9.8867 5.2188 15.652-2.8828 5.7617-9.8906 8.0977-15.652 5.2148l-69.895-34.945c-2.2266-1.0859-4.1289-2.8828-5.3242-5.2695-0.054688-0.11328-0.10938-0.23047-0.16406-0.34375-0.11328-0.25-0.22266-0.50781-0.32031-0.76562-0.53906-1.4297-0.77734-2.8984-0.74609-4.3438v-81.434c0-6.4414 5.2227-11.664 11.668-11.664 6.4414 0 11.664 5.2227 11.664 11.664v62.789l53.117-26.555c5.7617-2.8828 12.77-0.54688 15.652 5.2148 2.8828 5.7656 0.54688 12.773-5.2188 15.652zm-14.422-214.46v62.789c0 6.4453-5.2227 11.668-11.664 11.668-6.4453 0-11.668-5.2227-11.668-11.668v-81.43c-0.035156-1.7148 0.30469-3.457 1.0664-5.1094 0.57031-1.2422 1.3594-2.3789 2.3281-3.3516 0.98047-0.97656 2.0273-1.7109 3.1602-2.2617l69.895-34.949c5.7617-2.8789 12.77-0.54297 15.652 5.2188 2.8828 5.7617 0.54688 12.77-5.2188 15.652l-49.129 24.566 49.129 24.562c5.7656 2.8828 8.1016 9.8906 5.2188 15.652-2.8828 5.7656-9.8906 8.1016-15.652 5.2188zm169.57-122.54c1.6211-0.85547 3.4688-1.3359 5.4258-1.3359 1.9609 0 3.8086 0.48047 5.4297 1.3359l69.789 34.895c5.7617 2.8828 8.0977 9.8906 5.2188 15.652-2.8828 5.7617-9.8906 8.0977-15.652 5.2188l-53.117-26.559v62.789c0 6.4414-5.2227 11.668-11.668 11.668-6.4414 0-11.664-5.2266-11.664-11.668v-62.789l-53.117 26.559c-5.7617 2.8789-12.77 0.54297-15.652-5.2188-2.8828-5.7617-0.54688-12.77 5.2188-15.652zm10.855 440.66c-1.6211 0.85156-3.4688 1.3359-5.4297 1.3359-1.957 0-3.8047-0.48438-5.4258-1.3359l-69.789-34.895c-5.7656-2.8828-8.1016-9.8906-5.2188-15.652 2.8828-5.7656 9.8906-8.1016 15.652-5.2188l53.117 26.559v-62.789c0-6.4453 5.2227-11.668 11.664-11.668 6.4453 0 11.668 5.2227 11.668 11.668v62.789l53.117-26.559c5.7617-2.8828 12.77-0.54688 15.652 5.2188 2.8789 5.7617 0.54297 12.77-5.2188 15.652zm6.2383-236.45v62.789c0 6.4414-5.2227 11.668-11.668 11.668-6.4414 0-11.664-5.2266-11.664-11.668v-62.789l-63.551-31.777c-5.7656-2.8789-8.1016-9.8867-5.2188-15.652 2.8828-5.7617 9.8906-8.0977 15.652-5.2148l64.781 32.391 64.785-32.391c5.7617-2.8828 12.77-0.54688 15.652 5.2148 2.8789 5.7656 0.54297 12.773-5.2188 15.652z"/>
</svg>
